<svg xmlns="http://www.w3.org/2000/svg" width="688" height="618"><defs><linearGradient id="a" x1=".5" x2=".5" y2="1" gradientUnits="objectBoundingBox"><stop offset="0" stop-color="#d6a454"/><stop offset=".099" stop-color="#fac267"/><stop offset=".207" stop-color="#9a773d"/><stop offset=".355" stop-color="#fdc361"/><stop offset=".483" stop-color="#846633"/><stop offset=".596" stop-color="#f4b54d"/><stop offset=".7" stop-color="#f4b859"/><stop offset=".783" stop-color="#80602e"/><stop offset=".837" stop-color="#f2b75b"/><stop offset="1" stop-color="#6b522a"/></linearGradient><linearGradient id="b" x1=".821" y1=".13" x2=".27" y2="1.071" gradientUnits="objectBoundingBox"><stop offset="0" stop-color="#d6a454"/><stop offset=".177" stop-color="#f7c16c"/><stop offset=".32" stop-color="#b58b48"/><stop offset=".448" stop-color="#a98244"/><stop offset=".626" stop-color="#f2b85a"/><stop offset=".773" stop-color="#8e6d38"/><stop offset=".951" stop-color="#f0b558"/><stop offset="1" stop-color="#69512c"/></linearGradient></defs><g data-name="Gruppe 692"><path data-name="Ellipse 120" d="M309 3a308.274 308.274 0 0 0-61.673 6.217 304.306 304.306 0 0 0-109.412 46.041A306.9 306.9 0 0 0 27.046 189.892a304.431 304.431 0 0 0-17.829 57.435 309.011 309.011 0 0 0 0 123.346 304.306 304.306 0 0 0 46.041 109.412 306.9 306.9 0 0 0 134.634 110.869 304.431 304.431 0 0 0 57.435 17.829 309.011 309.011 0 0 0 123.346 0 304.306 304.306 0 0 0 109.413-46.041 306.9 306.9 0 0 0 110.868-134.634 304.432 304.432 0 0 0 17.829-57.435 309.011 309.011 0 0 0 0-123.346 304.306 304.306 0 0 0-46.041-109.413A306.9 306.9 0 0 0 428.108 27.046a304.432 304.432 0 0 0-57.435-17.829A308.274 308.274 0 0 0 309 3m0-3c170.656 0 309 138.344 309 309S479.656 618 309 618 0 479.656 0 309 138.344 0 309 0Z" fill="url(#a)"/><path data-name="Ellipse 119" d="M309 3a308.274 308.274 0 0 0-61.673 6.217 304.306 304.306 0 0 0-109.412 46.041A306.9 306.9 0 0 0 27.046 189.892a304.431 304.431 0 0 0-17.829 57.435 309.011 309.011 0 0 0 0 123.346 304.306 304.306 0 0 0 46.041 109.412 306.9 306.9 0 0 0 134.634 110.869 304.431 304.431 0 0 0 57.435 17.829 309.011 309.011 0 0 0 123.346 0 304.306 304.306 0 0 0 109.413-46.041 306.9 306.9 0 0 0 110.868-134.634 304.432 304.432 0 0 0 17.829-57.435 309.011 309.011 0 0 0 0-123.346 304.306 304.306 0 0 0-46.041-109.413A306.9 306.9 0 0 0 428.108 27.046a304.432 304.432 0 0 0-57.435-17.829A308.274 308.274 0 0 0 309 3m0-3c170.656 0 309 138.344 309 309S479.656 618 309 618 0 479.656 0 309 138.344 0 309 0Z" transform="translate(70)" fill="url(#a)"/><path data-name="Pfad 306" d="M308.5 20C149.421 20 20 149.645 20 309s129.421 289 288.5 289S597 468.355 597 309 467.579 20 308.5 20m0-20C478.88 0 617 138.344 617 309S478.88 618 308.5 618 0 479.656 0 309 138.12 0 308.5 0Z" transform="translate(32)" fill="url(#b)"/></g></svg>